<svg xmlns="http://www.w3.org/2000/svg" viewBox="0 0 397.2 404.1" aria-label="Sa-Ra hieroglyph — Glyph Standard mark">
  <!-- Ra: sun disk (stroke-only circle, top right) -->
  <circle fill="none" stroke="currentColor" stroke-width="15" stroke-miterlimit="10" cx="318.1" cy="80.9" r="65.8"/>
  <!-- Sa: duck eye -->
  <circle fill="currentColor" cx="87.6" cy="30.3" r="7"/>
  <!-- Sa: duck body -->
  <path fill="currentColor" stroke="currentColor" stroke-miterlimit="10" d="M350.1,288.4c4.5-6.5,40,3-10-36.5c-35.6-27.5-92.5-66.5-135.5-81.5
	s-93-19.5-98.5-29c-7-8,19.5-45,26.5-79c4-35.5-12.5-50-19.5-57c-5.5-4-20.5-8.5-40-0.5c-18,15-23.5,13-29,16.5s-6,3.5-11,6.5
	s-18,0.5-24,1s-8.5,6-8.5,6s8.5,7,17,9s31-1.5,42.5,6c9.5,6,17.8,4.8,29.3,8.3c22.3,18.8-16.8,58.3-35.8,78.8
	c-16,15.5-21.5,47.5-6.5,66.5c7.5,29,95.5,90.5,107,125.5c11.5,18-8.5,47-16.5,53c-21,6-39,3-68,6.5c-26.5,5-15,11.5-7,13.5
	c8,2,200.5,3,209-1.5c9-14-16-62.5-5.5-71.5c11.5-2.5,63.5-4.5,80,1c17,7,46.5,8.5,50.5,2C389.1,308.9,345.6,294.9,350.1,288.4z
	 M74.6,45.4c-30-16-3-29,9.5-32s21.5-3,29.5,21.5C121.8,50.5,101.1,50.9,74.6,45.4z M240.6,382.9c-34,3-70,11.5-69-23.5
	c4-28.5,2-39,23.5-41c23.2,2.8,39.5,7,47,22.5S253.6,371.4,240.6,382.9z M303.6,304.4c-39,1-54,7-63,0.5c-28-3.5-49.5,1.5-70.5-6
	s-97-75-109-104.5c-12.5-21-1.5-51,22-44.5c27.5,14,59,22,81.5,27c37.5,10,63,20.5,119.5,53c88,48-1.5,34.5-65.5,27.5
	c-64-7-85-21-96.5-53.5c-24.5-45.5-21.5,8-2,27.5c12.5,15.5,21,30.5,82.5,36.5s92.5,7,120.5,27C358.6,312.4,344.1,308.4,303.6,304.4
	z"/>
</svg>
